PathFileType	4	(X/Y/Z)	D:\TRACE\spot_10-12-23\spot_arm_body_motion_1_8-platform.trc
DataRate	CameraRate	NumFrames	NumMarkers	Units	OrigDataRate	OrigDataStartFrame	OrigNumFrames
100.00	100.00	      61	5	mm	100.00	4376	      7000
Frame#	Time	Left_Front			Right_Front			Left_Aft			Right_Aft			Post			
		X1	Y1	Z1	X2	Y2	Z2	X3	Y3	Z3	X4	Y4	Z4	X5	Y5	Z5	

4376	43.750	-812.13141	35.37413	-645.81946	755.33258	33.05893	-621.37891	-743.47180	-4.32158	492.09967	663.48413	-9.21893	594.21765	-24.62019	773.94781	-930.64355	
4377	43.760	-812.98932	35.23623	-645.85400	754.38800	32.84403	-621.53174	-744.33307	-3.94027	492.10925	662.63995	-8.92005	594.22699	-25.38524	773.81036	-931.11090	
4378	43.770	-813.80511	35.09378	-645.90295	753.50391	32.46948	-621.59058	-745.03894	-3.70227	492.01559	661.73950	-8.70276	594.15076	-26.12304	773.58624	-931.47662	
4379	43.780	-814.93073	34.94073	-646.10773	752.65338	32.14107	-621.64221	-746.16547	-3.58943	491.90338	660.88647	-8.58423	593.79254	-27.22085	773.05194	-931.78064	
4380	43.790	-815.61957	34.59732	-646.16553	751.88196	31.95592	-621.66681	-746.95740	-3.52030	491.84097	660.07880	-8.53409	593.73688	-27.69423	772.71497	-931.88470	
4381	43.800	-816.34973	34.22764	-646.18176	751.07330	31.61355	-621.73492	-747.47943	-3.37242	491.77826	659.29028	-8.35368	593.64435	-28.38438	772.29706	-932.12311	
4382	43.810	-817.09924	33.97665	-646.25140	750.42334	31.42441	-621.76654	-748.27179	-3.13408	491.70633	658.72290	-8.00006	594.00580	-29.31135	771.83063	-932.46185	
4383	43.820	-817.90668	34.01886	-646.51056	749.49573	31.27372	-621.88373	-749.19806	-2.89558	491.61090	657.74237	-7.65008	593.82123	-30.11765	771.50122	-932.72949	
4384	43.830	-818.72186	33.93554	-646.63647	748.52563	30.81022	-622.08350	-749.77972	-2.67276	491.53159	657.01563	-7.54702	593.74866	-30.69332	771.32068	-932.86517	
4385	43.840	-819.51563	33.49802	-646.56427	747.96106	30.62589	-622.15411	-750.69043	-2.52438	491.45700	656.28375	-7.47975	593.65796	-31.54071	770.86859	-933.15015	
4386	43.850	-820.27380	33.15131	-646.59491	747.28235	30.26711	-622.25696	-751.85779	-2.60770	491.59192	655.44220	-7.17036	593.58356	-32.27913	770.44952	-933.59863	
4387	43.860	-820.87958	32.83916	-646.73315	746.38483	30.01480	-622.28192	-752.09637	-2.33909	491.58832	654.83136	-6.90687	593.57050	-33.25294	770.06146	-934.15717	
4388	43.870	-821.61847	32.71401	-646.95337	745.86743	30.00744	-622.32971	-752.79333	-2.05814	491.52481	654.20477	-6.64997	593.50665	-33.85191	769.69482	-934.64514	
4389	43.880	-822.43121	32.40276	-647.04022	745.09906	29.74616	-622.41150	-753.61859	-1.86579	491.33301	653.52979	-6.30100	593.39789	-34.44015	769.38788	-935.13129	
4390	43.890	-823.01477	32.00355	-646.94012	744.43646	29.39590	-622.48163	-754.42041	-1.82443	491.25131	652.74518	-6.13589	593.37677	-35.36975	769.09985	-935.66461	
4391	43.900	-823.63934	31.59923	-646.96216	743.47388	29.06093	-622.64673	-754.91119	-1.49711	491.08582	651.95728	-6.20941	593.40039	-35.93510	768.55450	-936.06293	
4392	43.910	-823.98505	31.00649	-647.06445	743.03967	28.78388	-622.78601	-755.55505	-1.34252	491.00699	651.26563	-6.02643	593.32434	-36.48799	767.90912	-936.53925	
4393	43.920	-824.68066	30.87034	-647.24548	742.48865	28.62976	-622.79480	-756.22668	-1.20366	490.98099	650.63306	-5.56201	593.19031	-37.18930	767.70111	-936.98932	
4394	43.930	-825.47809	30.87931	-647.33728	741.90674	28.37312	-622.83234	-756.78143	-0.98812	490.92371	650.19336	-5.27970	593.03467	-37.83393	767.51355	-937.33618	
4395	43.940	-826.09607	30.67687	-647.42517	741.27405	27.97597	-622.87097	-757.34369	-0.65161	490.95782	649.53650	-5.14036	592.99530	-38.42332	766.96448	-937.66632	
4396	43.950	-826.69244	30.15782	-647.55414	740.57922	27.52096	-622.91693	-758.01422	-0.39788	490.78864	648.77875	-5.00097	592.88855	-38.96731	766.32318	-937.99152	
4397	43.960	-827.19464	29.85539	-647.59784	740.11261	27.17899	-623.01178	-758.62390	-0.19134	490.72659	648.16882	-4.73903	592.82306	-39.49171	765.87598	-938.30737	
4398	43.970	-827.65442	29.58297	-647.65771	739.64105	26.81380	-623.14148	-759.02887	-0.05988	490.61996	647.68140	-4.37597	592.73535	-40.10420	765.50470	-938.64478	
4399	43.980	-828.10132	29.37538	-647.81464	739.07507	26.56712	-623.29028	-759.52777	0.16934	490.65302	647.31378	-3.96459	592.70197	-40.68177	765.26843	-939.00452	
4400	43.990	-828.67322	29.07050	-647.98315	738.61078	26.41511	-623.41144	-759.97717	0.42189	490.66049	646.94464	-3.73474	592.66498	-40.96861	764.69427	-939.37048	
4401	44.000	-829.32361	28.71617	-648.13373	738.05481	25.96105	-623.55658	-760.57513	0.71264	490.58875	646.36237	-3.52662	592.61047	-41.29810	764.01855	-939.54492	
4402	44.010	-829.73975	28.32335	-648.06287	737.37219	25.38373	-623.70605	-760.97125	0.95100	490.46347	645.88489	-3.28235	592.57251	-41.85012	763.39545	-939.94922	
4403	44.020	-830.18207	27.93203	-648.16583	737.07733	25.19670	-623.75055	-761.37238	1.25668	490.41779	645.44574	-3.06585	592.47345	-42.46584	762.93335	-940.85559	
4404	44.030	-830.44128	27.41364	-648.24310	736.82343	25.04019	-623.78058	-761.80066	1.47003	490.35455	645.18860	-2.62021	592.50812	-42.52761	762.67108	-941.52277	
4405	44.040	-830.69525	27.05012	-648.31915	736.51678	24.77773	-623.85809	-762.24512	1.77865	490.20670	644.83734	-2.24382	592.39270	-42.92913	762.08038	-942.05652	
4406	44.050	-831.00262	26.75761	-648.45135	736.17596	24.32541	-623.92590	-762.63086	1.95439	490.13431	644.40680	-1.94235	592.25641	-43.46750	761.53693	-942.71771	
4407	44.060	-831.34064	26.34015	-648.53656	735.70123	23.70944	-624.05621	-762.94476	2.16259	490.02969	644.03394	-1.75374	592.25580	-44.04535	761.25482	-943.41803	
4408	44.070	-831.66211	25.89311	-648.61371	735.42419	23.37868	-624.12775	-763.23676	2.41658	489.85455	643.73553	-1.48935	592.29626	-44.10241	760.63623	-943.84882	
4409	44.080	-831.92114	25.63639	-648.70398	735.28845	23.18756	-624.20129	-763.38849	2.64527	489.71490	643.73022	-1.08516	592.29755	-44.01725	759.89648	-944.28906	
4410	44.090	-832.23920	25.37242	-648.79443	735.15656	22.93272	-624.31683	-763.55743	2.94334	489.59219	643.49384	-0.55525	592.11670	-44.24410	759.38104	-944.95844	
4411	44.100	-832.42096	24.97748	-648.97424	734.99707	22.57369	-624.43396	-763.68658	3.19366	489.54489	643.33093	-0.27850	592.06952	-44.54121	758.91583	-945.42169	
4412	44.110	-832.54102	24.54946	-649.10962	734.76715	21.93997	-624.50793	-763.83093	3.48812	489.45453	643.12219	-0.11141	592.02899	-44.88003	758.31488	-945.84601	
4413	44.120	-832.62762	24.18066	-649.19519	734.55157	21.47637	-624.62024	-763.94391	3.63856	489.40210	642.91809	0.18469	591.89307	-44.75275	757.55396	-946.11145	
4414	44.130	-832.68213	23.63983	-649.31201	734.46747	21.25799	-624.70313	-764.12225	3.85349	489.24655	642.70532	0.47416	592.04810	-44.98817	757.07172	-946.54333	
4415	44.140	-832.79877	23.24959	-649.38678	734.22522	20.74210	-624.92651	-764.31104	4.23854	489.06754	642.72845	0.93935	591.99786	-45.31374	756.79028	-947.28351	
4416	44.150	-832.88867	22.84970	-649.52423	734.15466	20.30000	-625.09113	-764.37323	4.55181	488.94772	642.66553	1.39796	591.76648	-44.97685	755.97003	-947.48383	
4417	44.160	-833.01959	22.44459	-649.63409	734.32715	20.02618	-625.11206	-764.45941	4.85268	488.91895	642.61090	1.75303	591.68066	-44.94143	755.18976	-948.12714	
4418	44.170	-833.02618	21.99749	-649.74585	734.21490	19.51727	-625.21252	-764.45081	5.12350	488.85660	642.48236	1.99793	591.62823	-45.18812	754.79169	-948.63293	
4419	44.180	-833.07684	21.63098	-649.82928	734.20605	19.10124	-625.30334	-764.35352	5.30949	488.82050	642.44275	2.23296	591.58636	-45.33201	754.17584	-949.36243	
4420	44.190	-833.12988	21.44330	-649.91052	734.27460	18.68935	-625.46515	-764.31177	5.62422	488.74667	642.63403	2.63928	591.61572	-45.12141	753.48212	-950.05475	
4421	44.200	-833.22083	21.09309	-650.03992	734.21625	18.35083	-625.56763	-764.35327	6.09214	488.55515	642.66571	3.00516	591.52942	-45.08196	752.87341	-950.57800	
4422	44.210	-833.16797	20.48171	-650.15338	734.10583	17.83260	-625.56482	-764.43726	6.45684	488.47873	642.57886	3.41287	591.31873	-45.12513	752.22321	-951.12988	
4423	44.220	-833.12500	19.94420	-650.24268	734.12689	17.43848	-625.83881	-764.43024	6.67275	488.46057	642.54468	3.80165	591.21606	-45.06342	751.43878	-951.89941	
4424	44.230	-833.03381	19.39538	-650.32159	734.16357	17.00005	-625.93433	-764.41925	6.85060	488.40869	642.65240	4.10717	591.08075	-45.15402	750.78546	-952.74841	
4425	44.240	-832.91034	18.90255	-650.43024	734.21979	16.55375	-626.04907	-764.39795	7.16399	488.27377	642.60474	4.43327	590.96631	-45.33175	750.33832	-953.34985	
4426	44.250	-832.83350	18.58760	-650.52496	734.34308	16.20055	-626.07965	-764.28534	7.48270	488.14963	642.65283	4.73885	590.94403	-44.88034	749.62433	-953.80847	
4427	44.260	-832.69189	18.16717	-650.56323	734.51385	15.72893	-626.14807	-764.08215	7.82989	487.98169	642.77313	4.99289	590.89288	-44.80087	749.00745	-954.45416	
4428	44.270	-832.38940	17.62342	-650.71686	734.73267	15.24898	-626.25177	-763.82599	8.16105	487.90021	642.95581	5.38614	590.70953	-44.64784	748.52740	-954.99542	
4429	44.280	-832.06818	17.10463	-650.87054	735.07739	14.74771	-626.40497	-763.46692	8.49357	487.84659	643.17743	5.74928	590.65302	-44.19271	747.63391	-955.41492	
4430	44.290	-831.86536	16.70109	-651.02460	735.31110	14.33807	-626.55316	-763.22369	8.79258	487.75543	643.59235	6.16399	590.46423	-44.17073	746.97845	-955.87982	
4431	44.300	-831.58136	16.27470	-651.15692	735.56140	13.87755	-626.71729	-762.92957	9.09414	487.69531	643.94684	6.56593	590.17358	-43.53698	746.21979	-956.52545	
4432	44.310	-831.45172	15.86655	-651.18439	735.90112	13.34939	-626.81427	-762.81641	9.37382	487.56219	644.15564	6.94251	590.09540	-43.30170	745.42291	-956.92621	
4433	44.320	-831.25751	15.31488	-651.29291	736.07025	12.87358	-626.93719	-762.65033	9.72875	487.30774	644.50500	7.34546	589.89050	-43.18642	744.72711	-957.56519	
4434	44.330	-830.85742	14.64865	-651.48175	736.31104	12.35337	-627.03094	-762.38300	10.08686	487.22305	644.71869	7.99812	589.98627	-43.03449	744.00873	-958.47180	
4435	44.340	-830.58929	14.16939	-651.72565	736.53119	11.90164	-627.11755	-762.00165	10.49034	487.12433	644.96625	8.27236	589.77112	-42.82442	743.20667	-959.12561	
4436	44.350	-830.33521	13.80692	-651.93427	736.94202	11.45647	-627.21216	-761.66278	10.78106	487.05328	645.26434	8.56675	589.59906	-42.51246	742.50439	-959.85577	
